<svg width="121" height="59" viewBox="0 0 121 59" fill="none" xmlns="http://www.w3.org/2000/svg">
<path d="M75.3537 0C70.4297 0 65.8491 1.98629 62.4556 5.5926C61.5735 6.53097 61.6108 8.01377 62.539 8.90455C63.4672 9.79645 64.9363 9.75772 65.8184 8.82045C68.3265 6.15363 71.7134 4.68521 75.3537 4.68521C82.6058 4.68521 88.5052 10.6441 88.5052 17.9696C88.5052 25.2939 82.6058 31.2539 75.3537 31.2539C66.2594 31.2539 63.9862 24.9841 62.1353 17.4085C60.6475 11.3246 57.8794 0 44.4119 0C34.6024 0 26.6206 8.06135 26.6206 17.9707C26.6206 27.88 34.6024 35.9402 44.4119 35.9402C49.3359 35.9402 53.9165 33.9539 57.31 30.3476C58.1921 29.4093 58.1548 27.9265 57.2266 27.0357C56.2973 26.1438 54.8294 26.1825 53.9473 27.1198C51.4381 29.7866 48.0523 31.2539 44.4119 31.2539C37.1598 31.2539 31.2604 25.295 31.2604 17.9707C31.2604 10.6452 37.1609 4.68632 44.4119 4.68632C53.5062 4.68632 55.7795 10.9572 57.6304 18.5328C59.1181 24.6167 61.8862 35.9402 75.3537 35.9402C85.1633 35.9402 93.145 27.8789 93.145 17.9707C93.145 8.06245 85.1633 0 75.3537 0Z" fill="white"/>
<path d="M44.3264 25.0848C43.7811 25.0848 43.2939 24.7561 43.0844 24.2482L38.6365 13.4171C38.4994 13.0829 38.4994 12.7145 38.6365 12.3803C38.7737 12.045 39.0326 11.7849 39.364 11.6466C40.0486 11.3611 40.8363 11.6898 41.1205 12.3803L44.3275 20.1882L47.5465 12.3493C47.6836 12.0151 47.9415 11.7551 48.2739 11.6156C48.6063 11.4773 48.9706 11.4762 49.303 11.6156C49.6344 11.754 49.8922 12.0151 50.0293 12.3493C50.1665 12.6846 50.1665 13.052 50.0293 13.3861L45.5683 24.2493C45.3599 24.7572 44.8716 25.0848 44.3264 25.0848Z" fill="white"/>
<path d="M75.4391 10.8542C75.9844 10.8542 76.4715 11.1829 76.6811 11.6908L81.1289 22.5219C81.2661 22.8561 81.2661 23.2246 81.1289 23.5588C80.9918 23.894 80.7329 24.1541 80.4015 24.2924C79.7169 24.5779 78.9292 24.2493 78.645 23.5588L75.438 15.7508L72.219 23.5897C72.0819 23.9239 71.824 24.184 71.4916 24.3234C71.1592 24.4617 70.7949 24.4628 70.4625 24.3234C70.1311 24.1851 69.8733 23.9239 69.7362 23.5897C69.599 23.2544 69.599 22.8871 69.7362 22.5529L74.1972 11.6897C74.4056 11.1829 74.8928 10.8542 75.4391 10.8542Z" fill="white"/>
<path d="M52.1335 55.4589C51.8153 55.4589 51.5476 55.3494 51.3392 55.1325C51.1307 54.9167 51.0254 54.6445 51.0254 54.3236V47.0114C51.0254 46.6905 51.1307 46.4193 51.3392 46.2025C51.5476 45.9856 51.8153 45.876 52.1335 45.876C52.4517 45.876 52.7183 45.9856 52.9278 46.2025C53.1363 46.4193 53.2416 46.6916 53.2416 47.0114V47.0435C53.5082 46.634 53.8703 46.312 54.3212 46.0852C54.8292 45.8284 55.3811 45.699 55.9604 45.699C56.3224 45.699 56.6329 45.8041 56.882 46.0121C57.1343 46.2235 57.2616 46.4758 57.2616 46.7635C57.2616 47.143 57.1617 47.433 56.9643 47.6266C56.7679 47.8192 56.5298 47.9165 56.2588 47.9165C56.0767 47.9165 55.8693 47.8734 55.6433 47.7893C55.6104 47.7782 55.5325 47.755 55.4107 47.7196C55.2933 47.6853 55.166 47.6687 55.0311 47.6687C54.7392 47.6687 54.454 47.7605 54.1841 47.9431C53.9131 48.1257 53.686 48.4067 53.5093 48.7797C53.3327 49.1537 53.2427 49.6074 53.2427 50.1286V54.3247C53.2427 54.6456 53.1374 54.9167 52.9289 55.1336C52.7194 55.3494 52.4517 55.4589 52.1335 55.4589Z" fill="white"/>
<path d="M62.4906 59.0001C62.1384 59.0001 61.6479 58.9403 61.0324 58.8219C60.4169 58.7035 59.9726 58.5829 59.7126 58.4634C59.1212 58.2078 58.8206 57.8448 58.8206 57.3856C58.8206 57.2971 58.8392 57.1964 58.8765 57.0846C58.949 56.8168 59.0762 56.6077 59.254 56.466C59.4328 56.3233 59.6303 56.2502 59.8409 56.2502C59.9627 56.2502 60.0812 56.2691 60.192 56.3056C60.2195 56.3122 60.3434 56.3554 61.0632 56.6342C61.5876 56.8378 62.0682 56.9407 62.4916 56.9407C63.3397 56.9407 63.9816 56.7692 64.3974 56.4306C64.8088 56.0953 65.0173 55.6118 65.0173 54.9954V54.3093C64.7584 54.6291 64.3941 54.9235 63.9322 55.1857C63.4056 55.4845 62.8318 55.635 62.2283 55.635C61.4022 55.635 60.6397 55.4203 59.9616 54.9987C59.2836 54.5771 58.7427 53.9829 58.3532 53.2337C57.9648 52.4857 57.7673 51.6248 57.7673 50.6765C57.7673 49.7281 57.9615 48.8639 58.3433 48.1103C58.7262 47.3556 59.2584 46.7581 59.9254 46.3354C60.5925 45.9127 61.344 45.698 62.1581 45.698C62.7604 45.698 63.3288 45.8253 63.8499 46.0753C64.3184 46.3011 64.7112 46.5744 65.0173 46.8887V46.8333C65.0173 46.5135 65.1226 46.2413 65.3311 46.0244C65.5395 45.8075 65.8072 45.698 66.1254 45.698C66.4436 45.698 66.7102 45.8042 66.9186 46.0156C67.1271 46.2269 67.2335 46.5014 67.2335 46.8333V54.7121C67.2335 56.1639 66.7804 57.2528 65.8873 57.9522C64.9964 58.6482 63.8543 59.0001 62.4906 59.0001ZM62.4906 47.7584C61.7269 47.7584 61.0972 48.0384 60.6188 48.5895C60.1383 49.1427 59.8947 49.8454 59.8947 50.6776C59.8947 51.5097 60.1383 52.2091 60.6177 52.7568C61.0961 53.3023 61.7258 53.579 62.4906 53.579C63.2542 53.579 63.8872 53.3023 64.3722 52.7568C64.8582 52.2091 65.104 51.5097 65.104 50.6776C65.104 49.8454 64.8571 49.1427 64.3722 48.5895C63.8872 48.0373 63.2542 47.7584 62.4906 47.7584Z" fill="white"/>
<path d="M114.803 55.636C113.988 55.636 113.24 55.4213 112.579 54.9986C111.918 54.5759 111.388 53.9827 111.005 53.2336C110.622 52.4856 110.428 51.6258 110.428 50.6763C110.428 49.728 110.619 48.8638 110.995 48.1113C111.373 47.3566 111.896 46.7591 112.551 46.3364C113.207 45.9136 113.94 45.699 114.731 45.699C115.297 45.699 115.836 45.8052 116.332 46.0132C116.785 46.2036 117.18 46.4448 117.506 46.7314C117.527 46.4559 117.631 46.218 117.816 46.0254C118.025 45.8085 118.293 45.699 118.611 45.699C118.929 45.699 119.196 45.8052 119.404 46.0166C119.612 46.2279 119.719 46.5023 119.719 46.8343V53.1196C119.719 53.217 119.734 53.2945 119.764 53.3498C119.797 53.4106 119.833 53.4184 119.856 53.4184C119.866 53.4184 119.91 53.4129 120.071 53.3431C120.201 53.2878 120.329 53.259 120.453 53.259C120.597 53.259 120.726 53.3221 120.836 53.4461C120.944 53.5689 120.999 53.7504 120.999 53.9872C120.999 54.4165 120.812 54.7739 120.442 55.0495C120.077 55.3206 119.62 55.4589 119.084 55.4589C118.745 55.4589 118.447 55.3593 118.198 55.1635C118.04 55.0395 117.765 54.7905 117.61 54.4674C117.293 54.8049 116.821 55.0594 116.396 55.2664C115.894 55.512 115.358 55.636 114.803 55.636ZM115.066 47.7583C114.337 47.7583 113.731 48.0372 113.264 48.5882C112.796 49.1415 112.558 49.8442 112.558 50.6774C112.558 51.5096 112.793 52.21 113.256 52.7578C113.716 53.3033 114.325 53.5788 115.066 53.5788C115.806 53.5788 116.419 53.3022 116.885 52.7567C117.353 52.2089 117.592 51.5096 117.592 50.6774C117.592 49.8453 117.353 49.1426 116.885 48.5882C116.418 48.0372 115.805 47.7583 115.066 47.7583Z" fill="white"/>
<path d="M26.153 44.7208C25.306 44.7208 24.6169 44.038 24.6169 43.1993C24.6169 42.3605 25.306 41.6777 26.153 41.6777C26.9999 41.6777 27.689 42.3605 27.689 43.1993C27.689 44.038 26.9999 44.7208 26.153 44.7208Z" fill="white"/>
<path d="M26.153 55.4589C25.8349 55.4589 25.5672 55.3493 25.3587 55.1324C25.1502 54.9166 25.0449 54.6444 25.0449 54.3235V47.0113C25.0449 46.6904 25.1502 46.4182 25.3587 46.2024C25.5672 45.9855 25.8349 45.876 26.153 45.876C26.4712 45.876 26.7378 45.9855 26.9474 46.2024C27.1558 46.4193 27.2612 46.6915 27.2612 47.0113V54.3235C27.2612 54.6444 27.1558 54.9155 26.9474 55.1324C26.7378 55.3493 26.4712 55.4589 26.153 55.4589Z" fill="white"/>
<path d="M39.7545 55.4591C39.6141 55.4591 39.477 55.4314 39.3464 55.3772C39.082 55.2666 38.8768 55.0596 38.7671 54.793C38.6574 54.5263 38.6574 54.233 38.7671 53.9675L43.2281 43.1054C43.3938 42.7004 43.7822 42.4392 44.2166 42.4392C44.6511 42.4392 45.0384 42.7004 45.2052 43.1054L49.653 53.9365C49.879 54.4864 49.619 55.1183 49.0737 55.3462C48.8093 55.4569 48.5185 55.4569 48.2552 55.3462C47.9908 55.2356 47.7857 55.0287 47.6759 54.762L44.2155 46.3365L40.7431 54.793C40.5774 55.198 40.1901 55.4591 39.7545 55.4591Z" fill="white"/>
<path d="M5.51791 55.459C5.08344 55.459 4.69615 55.1978 4.52938 54.7928L0.0815488 43.9617C-0.144464 43.4118 0.11556 42.7799 0.660843 42.552C1.20612 42.3251 1.8326 42.5863 2.05861 43.1362L5.51901 51.5616L8.99148 43.1052C9.2175 42.5553 9.84397 42.293 10.3892 42.521C10.9345 42.7489 11.1935 43.3808 10.9685 43.9307L6.50644 54.7939C6.34078 55.1978 5.95238 55.459 5.51791 55.459Z" fill="white"/>
<path d="M13.5492 55.4589C13.231 55.4589 12.9633 55.3494 12.7549 55.1325C12.5464 54.9167 12.4411 54.6445 12.4411 54.3236V47.0114C12.4411 46.6905 12.5464 46.4183 12.7549 46.2025C12.9633 45.9856 13.231 45.876 13.5492 45.876C13.8674 45.876 14.134 45.9856 14.3435 46.2025C14.552 46.4194 14.6573 46.6916 14.6573 47.0114V54.3236C14.6573 54.6445 14.552 54.9156 14.3435 55.1325C14.1351 55.3494 13.8674 55.4589 13.5492 55.4589ZM15.0852 43.1993C15.0852 42.3605 14.3962 41.6777 13.5492 41.6777C12.7022 41.6777 12.0132 42.3605 12.0132 43.1993C12.0132 44.038 12.7022 44.7208 13.5492 44.7208C14.3962 44.7208 15.0852 44.038 15.0852 43.1993Z" fill="white"/>
<path d="M20.009 55.3992C19.2344 55.3992 18.5004 55.2664 17.83 55.0064C17.1564 54.7441 16.599 54.3148 16.1734 53.7305C16.0614 53.58 16.0044 53.3908 16.0044 53.1662C16.0044 52.8408 16.1657 52.5642 16.4849 52.3418C16.6583 52.2289 16.8393 52.1725 17.0247 52.1725C17.2837 52.1725 17.5338 52.2909 17.7653 52.5255C18.1109 52.8851 18.4741 53.1551 18.8471 53.3288C19.2179 53.5014 19.6744 53.5889 20.2021 53.5889C21.0864 53.5546 21.5165 53.2303 21.5165 52.5996C21.5165 52.2765 21.3738 52.0375 21.0787 51.8682C20.7737 51.6944 20.2909 51.5174 19.6436 51.3425C18.9656 51.1544 18.405 50.9619 17.9771 50.7726C17.5437 50.5812 17.1652 50.2869 16.8503 49.8985C16.5332 49.5067 16.373 48.9734 16.373 48.3139C16.373 47.7373 16.5398 47.2283 16.8668 46.8012C17.1926 46.3763 17.6249 46.0432 18.1515 45.8108C19.2103 45.3427 20.45 45.3538 21.6426 45.8008C22.2461 46.0277 22.7266 46.3674 23.0711 46.81C23.2302 47.0081 23.3114 47.2338 23.3114 47.4817C23.3114 47.7694 23.1918 48.0107 22.957 48.1977C22.7837 48.3349 22.584 48.4046 22.3613 48.4046C22.0892 48.4046 21.8643 48.3161 21.6909 48.1401C21.4825 47.8845 21.2147 47.6809 20.8911 47.5315C20.5663 47.3821 20.1922 47.3069 19.7819 47.3069C18.9206 47.3069 18.5026 47.6068 18.5026 48.2253C18.5026 48.4721 18.5772 48.6646 18.7319 48.814C18.8888 48.9667 19.0918 49.0885 19.3353 49.1737C19.5855 49.2611 19.941 49.3717 20.3941 49.5001C21.0238 49.676 21.5582 49.8619 21.9817 50.0512C22.4095 50.2426 22.7771 50.5403 23.0744 50.9364C23.3728 51.3337 23.5242 51.8637 23.5242 52.51C23.5242 53.0987 23.3487 53.6187 23.0031 54.058C22.6597 54.494 22.2121 54.8304 21.6734 55.0573C21.1347 55.2841 20.5751 55.3992 20.009 55.3992Z" fill="white"/>
<path d="M32.8589 55.459C32.126 55.459 31.4984 55.2985 30.9948 54.981C30.4825 54.6589 30.2224 53.9729 30.2224 52.9427V48.1114H29.4698C29.1747 48.1114 28.9256 48.0107 28.7292 47.8115C28.5317 47.6134 28.4319 47.3611 28.4319 47.0646C28.4319 46.7791 28.5317 46.5356 28.7292 46.3431C28.9256 46.1505 29.1747 46.0532 29.4698 46.0532H30.2224V44.0138C30.2224 43.6929 30.331 43.4206 30.5461 43.2049C30.7611 42.988 31.031 42.8784 31.3481 42.8784C31.6542 42.8784 31.9153 42.988 32.1249 43.2049C32.3333 43.4217 32.4387 43.694 32.4387 44.0138V46.0532H33.6302C33.9242 46.0532 34.1744 46.1539 34.3707 46.353C34.5682 46.5522 34.6681 46.8034 34.6681 47.1C34.6681 47.3855 34.5682 47.6289 34.3707 47.8215C34.1744 48.014 33.9253 48.1114 33.6302 48.1114H32.4387V52.8541C32.4387 53.0843 32.4968 53.2514 32.6131 53.3521C32.7305 53.455 32.8962 53.507 33.1035 53.507C33.1913 53.507 33.3164 53.4838 33.4744 53.4384C33.6148 53.3786 33.7574 53.3477 33.8935 53.3477C34.0734 53.3477 34.238 53.4351 34.3828 53.6066C34.5254 53.7759 34.5979 53.9994 34.5979 54.2705C34.5979 54.608 34.4146 54.8946 34.0548 55.1226C33.7026 55.3461 33.2999 55.459 32.8589 55.459Z" fill="white"/>
<path d="M76.8798 48.0826C76.4673 47.3578 75.9088 46.7736 75.2198 46.3453C74.5297 45.9171 73.7847 45.7002 73.0058 45.7002C72.2158 45.7002 71.4621 45.9082 70.7665 46.3188C70.0709 46.7293 69.5026 47.3291 69.078 48.1014C68.6545 48.8738 68.4395 49.7823 68.4395 50.8015C68.4395 51.7155 68.6424 52.5498 69.0429 53.2802C69.4433 54.0116 70.0204 54.5937 70.7577 55.0097C71.4939 55.4258 72.3672 55.6361 73.3558 55.6361C73.9197 55.6361 74.4869 55.5398 75.041 55.3495C75.5939 55.1591 76.0438 54.9234 76.374 54.6501C76.7141 54.3801 76.8864 54.0736 76.8864 53.7394C76.8864 53.4893 76.792 53.268 76.6066 53.081C76.2818 52.7535 75.8265 52.7059 75.3109 52.9659C75.2516 53.0013 75.143 53.0699 74.985 53.1706C74.8314 53.268 74.6208 53.361 74.3563 53.4484C74.0941 53.5347 73.7211 53.579 73.2504 53.579C72.6338 53.579 72.0721 53.3831 71.5817 52.998C71.1077 52.6251 70.7939 52.1083 70.6502 51.4588H76.3751C76.668 51.4588 76.9281 51.3647 77.1475 51.1799C77.3691 50.9929 77.4887 50.7473 77.5008 50.4474C77.5019 49.6031 77.2934 48.8074 76.8798 48.0826ZM70.535 49.6872L70.5471 49.6219C70.7972 48.3117 71.6245 47.6478 73.0058 47.6478C73.5664 47.6478 74.0733 47.8303 74.5143 48.1911C74.9576 48.5529 75.2055 48.9944 75.2538 49.5035V49.6883H70.535V49.6872Z" fill="white"/>
<path d="M86.2415 55.459C85.9233 55.459 85.6556 55.3495 85.4472 55.1326C85.2387 54.9168 85.1334 54.6446 85.1334 54.3237V49.7912C85.1334 49.1571 85.0006 48.6525 84.7406 48.2929C84.4839 47.9377 84.0318 47.7584 83.3977 47.7584C82.7372 47.7584 82.2128 47.9521 81.8397 48.3349C81.4656 48.7178 81.2758 49.208 81.2758 49.7923V54.3248C81.2758 54.6457 81.1705 54.9168 80.962 55.1337C80.7536 55.3506 80.4859 55.4601 80.1677 55.4601C79.8495 55.4601 79.5818 55.3506 79.3734 55.1337C79.1649 54.9179 79.0596 54.6457 79.0596 54.3248V47.0126C79.0596 46.6917 79.1649 46.4206 79.3734 46.2037C79.5818 45.9868 79.8495 45.8772 80.1677 45.8772C80.4859 45.8772 80.7525 45.9868 80.962 46.2037C81.1705 46.4206 81.2758 46.6928 81.2758 47.0126V47.1531C81.5808 46.778 81.9681 46.4471 82.43 46.1683C82.9457 45.8573 83.5195 45.7002 84.135 45.7002C85.3429 45.7002 86.191 46.0687 86.6562 46.7968C87.1159 47.5172 87.3496 48.5242 87.3496 49.7923V54.3248C87.3496 54.6457 87.2443 54.9168 87.0358 55.1337C86.8263 55.3495 86.5597 55.459 86.2415 55.459Z" fill="white"/>
<path d="M92.9827 55.459C92.2498 55.459 91.6233 55.2985 91.1186 54.981C90.6062 54.6589 90.3462 53.9729 90.3462 52.9427V48.1114H89.5936C89.2984 48.1114 89.0494 48.0107 88.853 47.8115C88.6555 47.6134 88.5557 47.3611 88.5557 47.0646C88.5557 46.7791 88.6555 46.5356 88.853 46.3431C89.0494 46.1505 89.2984 46.0532 89.5936 46.0532H90.3462V44.0138C90.3462 43.6929 90.4548 43.4206 90.6699 43.2049C90.8849 42.988 91.1548 42.8784 91.4719 42.8784C91.778 42.8784 92.0391 42.988 92.2487 43.2049C92.4571 43.4217 92.5624 43.694 92.5624 44.0138V46.0532H93.754C94.048 46.0532 94.2981 46.1539 94.4945 46.353C94.692 46.5522 94.7918 46.8034 94.7918 47.1C94.7918 47.3855 94.692 47.6289 94.4945 47.8215C94.2981 48.014 94.0491 48.1114 93.754 48.1114H92.5624V52.8541C92.5624 53.0843 92.6206 53.2514 92.7369 53.3521C92.8543 53.455 93.02 53.507 93.2273 53.507C93.3151 53.507 93.4402 53.4838 93.5982 53.4384C93.7386 53.3786 93.8812 53.3477 94.0173 53.3477C94.1972 53.3477 94.3618 53.4351 94.5066 53.6066C94.6492 53.7759 94.7216 53.9994 94.7216 54.2705C94.7216 54.608 94.5384 54.8946 94.1785 55.1226C93.8264 55.3461 93.4237 55.459 92.9827 55.459Z" fill="white"/>
<path d="M97.5116 55.4589C97.1934 55.4589 96.9257 55.3494 96.7173 55.1325C96.5088 54.9167 96.4035 54.6445 96.4035 54.3236V47.0114C96.4035 46.6905 96.5088 46.4183 96.7173 46.2025C96.9257 45.9856 97.1934 45.876 97.5116 45.876C97.8298 45.876 98.0964 45.9856 98.3059 46.2025C98.5144 46.4194 98.6197 46.6916 98.6197 47.0114V54.3236C98.6197 54.6445 98.5144 54.9156 98.3059 55.1325C98.0964 55.3494 97.8298 55.4589 97.5116 55.4589ZM99.0476 43.1993C99.0476 42.3605 98.3586 41.6777 97.5116 41.6777C96.6646 41.6777 95.9756 42.3605 95.9756 43.1993C95.9756 44.038 96.6646 44.7208 97.5116 44.7208C98.3586 44.7208 99.0476 44.038 99.0476 43.1993Z" fill="white"/>
<path d="M107.763 55.459C107.445 55.459 107.177 55.3495 106.969 55.1326C106.76 54.9168 106.655 54.6446 106.655 54.3237V49.7912C106.655 49.1571 106.522 48.6525 106.262 48.2929C106.006 47.9377 105.554 47.7584 104.919 47.7584C104.259 47.7584 103.735 47.9521 103.361 48.3349C102.987 48.7178 102.798 49.208 102.798 49.7923V54.3248C102.798 54.6457 102.692 54.9168 102.484 55.1337C102.275 55.3506 102.008 55.4601 101.689 55.4601C101.371 55.4601 101.104 55.3506 100.895 55.1337C100.687 54.9179 100.581 54.6457 100.581 54.3248V47.0126C100.581 46.6917 100.687 46.4206 100.895 46.2037C101.104 45.9868 101.371 45.8772 101.689 45.8772C102.008 45.8772 102.274 45.9868 102.484 46.2037C102.692 46.4206 102.798 46.6928 102.798 47.0126V47.1531C103.103 46.778 103.49 46.4471 103.952 46.1683C104.467 45.8573 105.041 45.7002 105.657 45.7002C106.865 45.7002 107.713 46.0687 108.178 46.7968C108.638 47.5172 108.871 48.5242 108.871 49.7923V54.3248C108.871 54.6457 108.766 54.9179 108.558 55.1337C108.348 55.3495 108.08 55.459 107.763 55.459Z" fill="white"/>
</svg>
